# Blender 4.3.0
# www.blender.org
mtllib pointer.mtl
g Cone_Cone
v 0.000000 1.000000 -1.000000
v -0.866025 1.000000 -0.500000
v -0.866025 1.000000 0.500000
v 0.000000 1.000000 1.000000
v 0.866025 1.000000 0.500000
v 0.866025 1.000000 -0.500000
v -0.000000 -1.000000 0.000000
vn -0.4588 -0.3974 -0.7947
vn -0.9177 -0.3974 -0.0000
vn -0.4588 -0.3974 0.7947
vn 0.4588 -0.3974 0.7947
vn -0.0000 1.0000 -0.0000
vn 0.9177 -0.3974 -0.0000
vn 0.4588 -0.3974 -0.7947
vt 0.250000 0.490000
vt 0.250000 0.250000
vt 0.457846 0.370000
vt 0.457846 0.130000
vt 0.250000 0.010000
vt 0.042154 0.130000
vt 0.750000 0.490000
vt 0.957846 0.370000
vt 0.957846 0.130000
vt 0.750000 0.010000
vt 0.542154 0.130000
vt 0.542154 0.370000
vt 0.042154 0.370000
s 0
f 1/1/1 7/2/1 2/3/1
f 2/3/2 7/2/2 3/4/2
f 3/4/3 7/2/3 4/5/3
f 4/5/4 7/2/4 5/6/4
f 1/7/5 2/8/5 3/9/5 4/10/5 5/11/5 6/12/5
f 5/6/6 7/2/6 6/13/6
f 6/13/7 7/2/7 1/1/7
g Sphere_Sphere
v 0.000000 1.419776 -0.433013
v 0.433013 1.919776 0.000000
v 0.433013 1.419776 0.000000
v -0.000000 1.919776 0.433013
v -0.000000 1.419776 0.433013
v 0.000000 2.169776 0.000000
v -0.433013 1.919776 -0.000000
v -0.433013 1.419776 -0.000000
v 0.000000 1.919776 -0.433013
v 0.000000 1.169776 0.000000
vn 0.4472 -0.7746 -0.4472
vn 0.7071 -0.0000 -0.7071
vn 0.4472 0.7746 -0.4472
vn 0.4472 -0.7746 0.4472
vn 0.7071 -0.0000 0.7071
vn 0.4472 0.7746 0.4472
vn -0.4472 -0.7746 0.4472
vn -0.7071 -0.0000 0.7071
vn -0.4472 0.7746 0.4472
vn -0.4472 -0.7746 -0.4472
vn -0.7071 -0.0000 -0.7071
vn -0.4472 0.7746 -0.4472
vt 0.625000 0.000000
vt 0.750000 0.333333
vt 0.500000 0.333333
vt 0.750000 0.666667
vt 0.500000 0.666667
vt 0.625000 1.000000
vt 0.375000 0.000000
vt 0.250000 0.333333
vt 0.250000 0.666667
vt 0.375000 1.000000
vt 0.125000 0.000000
vt 0.000000 0.333333
vt 0.000000 0.666667
vt 0.125000 1.000000
vt 0.875000 0.000000
vt 1.000000 0.333333
vt 1.000000 0.666667
vt 0.875000 1.000000
s 0
f 17/14/8 8/15/8 10/16/8
f 8/15/9 16/17/9 9/18/9 10/16/9
f 16/17/10 13/19/10 9/18/10
f 17/20/11 10/16/11 12/21/11
f 10/16/12 9/18/12 11/22/12 12/21/12
f 9/18/13 13/23/13 11/22/13
f 17/24/14 12/21/14 15/25/14
f 12/21/15 11/22/15 14/26/15 15/25/15
f 11/22/16 13/27/16 14/26/16
f 17/28/17 15/29/17 8/15/17
f 15/29/18 14/30/18 16/17/18 8/15/18
f 14/30/19 13/31/19 16/17/19
